<svg width="417" height="129" viewBox="0 0 417 129" fill="none" xmlns="http://www.w3.org/2000/svg">
<path d="M55.0167 66.5615C56.7046 63.117 64.2949 63.1166 65.9823 66.5639L89.017 113.625C90.9304 117.539 89.1457 122.257 85.1202 123.924C81.0946 125.589 76.4963 123.513 75.0828 119.393L61.2607 79.0792C61.011 78.3569 59.9861 78.358 59.7379 79.0817L45.9156 119.392C44.5015 123.512 39.9036 125.588 35.8778 123.921C31.8524 122.254 30.0693 117.535 31.9836 113.622L55.0167 66.5615Z" fill="#014CD7"/>
<path d="M32.82 71.1682C35.0055 70.5089 37.3376 71.6109 38.2112 73.7196C39.0848 75.8283 38.2152 78.2562 36.2035 79.3351L11.2231 92.7337C7.42847 94.7688 2.70585 93.0837 1.05797 89.1061C-0.5899 85.1285 1.55772 80.5982 5.68027 79.3546L32.82 71.1682Z" fill="#397EFF"/>
<path d="M11.2221 36.2444L36.2039 49.6417C38.2156 50.7207 39.0824 53.1487 38.2088 55.2573C37.3352 57.366 35.0051 58.4701 32.8195 57.8108L5.67968 49.6225C1.55714 48.3789 -0.591119 43.8489 1.05675 39.8713C2.70464 35.8937 7.42748 34.2093 11.2221 36.2444Z" fill="#397EFF"/>
<path d="M115.32 79.3554C119.443 80.599 121.591 85.1291 119.943 89.1066C118.295 93.0842 113.573 94.7687 109.778 92.7335L84.7961 79.3362C82.7844 78.2573 81.9176 75.8293 82.7912 73.7206C83.6648 71.6119 85.9949 70.5079 88.1805 71.1672L115.32 79.3554Z" fill="#397EFF"/>
<path d="M35.8783 5.05787C39.8566 3.4103 44.3878 5.55753 45.6316 9.67931L53.8196 36.8141C54.479 38.9992 53.3767 41.3308 51.2677 42.2042C49.1586 43.0777 46.7302 42.2082 45.6511 40.1969L32.2501 15.2211C30.2146 11.4272 31.9 6.70544 35.8783 5.05787Z" fill="#397EFF"/>
<path d="M109.777 36.2443C113.572 34.2091 118.294 35.8942 119.942 39.8718C121.59 43.8494 119.442 48.3797 115.32 49.6233L88.18 57.8097C85.9945 58.469 83.6625 57.367 82.7888 55.2583C81.9152 53.1496 82.7848 50.7217 84.7965 49.6428L109.777 36.2443Z" fill="#397EFF"/>
<path d="M85.1222 5.05665C89.1005 6.70423 90.7853 11.4262 88.7497 15.2201L75.35 40.1973C74.2708 42.2086 71.8424 43.0753 69.7333 42.2018C67.6243 41.3284 66.52 38.9987 67.1794 36.8136L75.3692 9.67873C76.613 5.55694 81.1439 3.40908 85.1222 5.05665Z" fill="#397EFF"/>
<path d="M186.548 55.604L194.676 61.044L191.284 65.716H215.476V93.556H208.564V90.612H177.716V93.556H170.932V65.716H190.9L181.108 58.996C180.724 58.74 180.34 58.804 179.892 59.252C177.396 62.132 173.236 64.82 166.836 67.444L163.764 61.94C170.612 59.252 174.516 56.884 176.244 53.492H164.148V48.116H167.988L163.892 45.172C167.092 41.908 169.14 38.388 170.676 34.228L176.372 35.572C176.052 36.596 175.668 37.62 175.22 38.644H192.692V43.956H183.668V48.116H193.78V53.492H182.964C182.644 54.516 182.26 55.476 181.748 56.436L182.388 56.884L183.284 55.796C184.18 54.772 185.268 54.644 186.548 55.604ZM195.956 62.068V38.132H220.404V62.068H195.956ZM202.356 56.372H213.94V43.892H202.356V56.372ZM177.396 43.956H172.404C171.508 45.428 170.42 46.836 169.332 48.116H177.396V43.956ZM177.716 75.636H208.564V71.028H177.716V75.636ZM177.716 80.692V85.236H208.564V80.692H177.716ZM244.916 41.204L249.524 37.94C252.276 41.076 256.884 47.156 259.252 51.188L254.196 54.708C253.748 53.812 253.108 52.852 252.468 51.764C245.428 52.66 237.044 53.108 228.084 53.492L227.38 47.796C231.924 44.532 235.956 38.9 238.26 34.228L244.276 36.596C242.484 39.988 239.604 44.148 236.34 47.348C241.076 47.092 245.492 46.836 249.012 46.58C247.54 44.532 246.132 42.612 244.916 41.204ZM278.708 61.62H266.484C261.492 61.62 259.636 59.764 259.636 54.772V34.804H266.036V42.548C271.54 40.82 276.468 38.388 280.116 36.148L284.02 40.948C279.796 43.7 273.268 46.644 266.036 48.82V52.916C266.036 54.836 266.356 55.22 268.276 55.22H278.964V47.604L285.044 49.908V55.412C285.044 59.892 283.124 61.62 278.708 61.62ZM236.148 93.556H229.812V56.18H255.604V86.26C255.604 91.508 253.364 92.852 249.204 92.852H243.188L241.396 86.644H249.332V81.012H236.148V93.556ZM249.332 66.1V61.94H236.148V66.1H249.332ZM279.412 86.388V77.428L285.428 79.668V86.708C285.428 91.188 283.572 92.916 279.156 92.916H266.484C261.492 92.916 259.636 91.06 259.636 86.068V64.244H266.036V73.14C271.924 71.092 277.364 68.468 281.204 65.908L285.044 70.9C280.692 73.908 273.588 77.172 266.036 79.604V84.148C266.036 86.068 266.356 86.388 268.276 86.388H279.412ZM236.148 71.412V75.636H249.332V71.412H236.148ZM321.46 43.764H347.572V84.212C347.572 89.908 345.012 92.212 339.316 92.212H330.996L329.14 85.3H340.468V50.356H300.468V93.108H293.364V43.764H313.268C314.932 40.692 316.276 37.492 317.172 34.356L325.428 35.828C324.468 38.516 323.188 41.14 321.46 43.764ZM306.932 56.372H333.684V79.156H313.524V83.444H306.932V56.372ZM313.524 73.204H327.028V62.324H313.524V73.204ZM402.484 67.572H413.876V72.884H355.124V67.572H366.9C366.132 66.228 365.172 64.756 363.892 63.028L369.012 61.748H355.892V56.5H380.788V53.172H359.348V48.308H380.788V45.108H356.916V39.86H369.716C368.82 38.452 367.86 36.98 366.644 35.38L373.236 33.588C374.324 34.932 375.732 36.916 376.884 38.772L372.788 39.86H391.54C392.884 37.748 394.036 35.508 394.804 33.652L401.524 35.38C400.82 36.788 399.924 38.388 398.836 39.86H412.084V45.108H387.188V48.308H409.716V53.172H387.188V56.5H413.108V61.748H400.308L405.172 63.156C404.468 64.692 403.636 66.1 402.484 67.572ZM380.788 61.748H370.548C371.764 63.22 372.596 64.756 373.3 66.228L368.308 67.572H380.788V61.748ZM398.772 61.748H387.188V67.572H400.372L395.7 66.356C397.044 64.628 398.004 63.156 398.772 61.748ZM367.796 94.004H360.948V76.084H408.052V94.004H401.204V91.828H367.796V94.004ZM401.204 81.396H367.796V86.516H401.204V81.396Z" fill="black"/>
</svg>
