<svg width="48" height="48" viewBox="0 0 48 48" fill="none" xmlns="http://www.w3.org/2000/svg">
<path d="M21.8067 24.8246C22.4818 23.4468 25.518 23.4466 26.1929 24.8256L35.4068 43.6501C36.1722 45.2154 35.4583 47.1026 33.8481 47.7695C32.2378 48.4356 30.3985 47.6053 29.8331 45.9571L24.3043 29.8317C24.2044 29.5427 23.7944 29.5432 23.6952 29.8327L18.1662 45.9567C17.6006 47.6049 15.7614 48.4352 14.1511 47.7685C12.5409 47.1015 11.8277 45.2141 12.5934 43.6487L21.8067 24.8246Z" fill="#014CD7"/>
<path d="M12.928 26.6673C13.8022 26.4036 14.735 26.8444 15.0845 27.6878C15.4339 28.5313 15.0861 29.5025 14.2814 29.9341L4.28923 35.2935C2.77139 36.1075 0.882338 35.4335 0.223189 33.8425C-0.43596 32.2514 0.42309 30.4393 2.07211 29.9418L12.928 26.6673Z" fill="#397EFF"/>
<path d="M4.28883 12.6978L14.2816 18.0567C15.0862 18.4883 15.433 19.4595 15.0835 20.3029C14.7341 21.1464 13.802 21.588 12.9278 21.3243L2.07187 18.049C0.422855 17.5516 -0.436447 15.7396 0.222702 14.1485C0.881855 12.5575 2.77099 11.8837 4.28883 12.6978Z" fill="#397EFF"/>
<path d="M45.9281 29.9422C47.5771 30.4396 48.4364 32.2516 47.7773 33.8427C47.1182 35.4337 45.229 36.1075 43.7112 35.2934L33.7184 29.9345C32.9138 29.5029 32.567 28.5317 32.9165 27.6882C33.2659 26.8448 34.198 26.4031 35.0722 26.6669L45.9281 29.9422Z" fill="#397EFF"/>
<path d="M14.1513 0.223148C15.7427 -0.435878 17.5551 0.423012 18.0527 2.07173L21.3278 12.9256C21.5916 13.7997 21.1507 14.7323 20.3071 15.0817C19.4634 15.4311 18.4921 15.0833 18.0604 14.2788L12.7 4.28844C11.8858 2.77088 12.56 0.882176 14.1513 0.223148Z" fill="#397EFF"/>
<path d="M43.7108 12.6977C45.2286 11.8836 47.1177 12.5577 47.7768 14.1487C48.436 15.7398 47.5769 17.5519 45.9279 18.0493L35.072 21.3239C34.1978 21.5876 33.265 21.1468 32.9155 20.3033C32.5661 19.4599 32.9139 18.4887 33.7186 18.0571L43.7108 12.6977Z" fill="#397EFF"/>
<path d="M33.8489 0.22266C35.4402 0.881691 36.1141 2.77048 35.2999 4.28804L29.94 14.2789C29.5083 15.0835 28.537 15.4301 27.6933 15.0807C26.8497 14.7314 26.408 13.7995 26.6718 12.9254L29.9477 2.07149C30.4452 0.422777 32.2576 -0.436367 33.8489 0.22266Z" fill="#397EFF"/>
</svg>
