<svg width="16" height="16" viewBox="0 0 16 16" fill="none" xmlns="http://www.w3.org/2000/svg">
<g clip-path="url(#clip0_112_346)">
<path fill-rule="evenodd" clip-rule="evenodd" d="M7.99998 0.833328C10.8466 0.833328 13.1666 3.15333 13.1666 5.99999C13.1666 8.67823 11.1131 10.8903 8.49938 11.1427L8.49865 12.1653L9.99998 12.1667C10.2733 12.1667 10.5 12.3933 10.5 12.6667C10.5 12.94 10.2733 13.1667 9.99998 13.1667L8.49865 13.1653L8.49998 14.6667C8.49998 14.94 8.27331 15.1667 7.99998 15.1667C7.72665 15.1667 7.49998 14.94 7.49998 14.6667L7.49865 13.1653L5.99998 13.1667C5.72665 13.1667 5.49998 12.94 5.49998 12.6667C5.49998 12.3933 5.72665 12.1667 5.99998 12.1667L7.49865 12.1653L7.49926 11.1425C4.8862 10.8895 2.83331 8.67778 2.83331 5.99999C2.83331 3.15333 5.15331 0.833328 7.99998 0.833328ZM7.99998 1.83333C5.69998 1.83333 3.83331 3.69999 3.83331 5.99999C3.83331 8.29686 5.69489 10.1616 7.99057 10.1667L8.00798 10.1667L8.23631 10.1601C10.4265 10.0374 12.1666 8.22068 12.1666 5.99999C12.1666 3.69999 10.3 1.83333 7.99998 1.83333Z" fill="#FC407F"/>
</g>
<defs>
<clipPath id="clip0_112_346">
<rect width="16" height="16" fill="white"/>
</clipPath>
</defs>
</svg>
