<svg width="16" height="16" viewBox="0 0 16 16" fill="none" xmlns="http://www.w3.org/2000/svg">
<g clip-path="url(#clip0_112_340)">
<path fill-rule="evenodd" clip-rule="evenodd" d="M14.3333 1.16667L14.3751 1.16999C14.3827 1.17061 14.3903 1.17141 14.3979 1.17237L14.3333 1.16667C14.3857 1.16667 14.4365 1.17502 14.4842 1.19044C14.4902 1.19294 14.4974 1.19531 14.5045 1.19785C14.5274 1.20601 14.549 1.2159 14.5697 1.22722C14.5828 1.2336 14.5957 1.24119 14.6083 1.24941C14.6158 1.25555 14.6236 1.26108 14.6312 1.26683C14.6509 1.27995 14.6694 1.29583 14.6869 1.3133L14.7331 1.36872C14.7389 1.37637 14.7444 1.38419 14.7497 1.39217L14.6869 1.3133C14.7218 1.34819 14.7504 1.3872 14.7727 1.42885C14.7843 1.45126 14.7949 1.47461 14.8037 1.49879C14.8051 1.5035 14.8067 1.50841 14.8083 1.51334C14.818 1.54135 14.8248 1.57065 14.8289 1.60074C14.8288 1.60973 14.8296 1.61732 14.8302 1.62493C14.8326 1.63765 14.8333 1.65209 14.8333 1.66667V6.00001C14.8333 6.27334 14.6066 6.50001 14.3333 6.50001C14.06 6.50001 13.8333 6.27334 13.8333 6.00001L13.832 2.87334L11.1766 5.52924C12.0024 6.51389 12.5 7.78282 12.5 9.16667C12.5 12.2933 9.95996 14.8333 6.83329 14.8333C3.70663 14.8333 1.16663 12.2933 1.16663 9.16667C1.16663 6.04001 3.70663 3.50001 6.83329 3.50001C8.21714 3.50001 9.48607 3.99757 10.4707 4.82334L13.1253 2.16667H9.99996C9.72663 2.16667 9.49996 1.94001 9.49996 1.66667C9.49996 1.39334 9.72663 1.16667 9.99996 1.16667H14.3333ZM6.83329 4.50001C4.25996 4.50001 2.16663 6.59334 2.16663 9.16667C2.16663 11.74 4.25996 13.8333 6.83329 13.8333C9.40663 13.8333 11.5 11.74 11.5 9.16667C11.5 6.59334 9.40663 4.50001 6.83329 4.50001Z" fill="#397EFF"/>
</g>
<defs>
<clipPath id="clip0_112_340">
<rect width="16" height="16" fill="white"/>
</clipPath>
</defs>
</svg>
