<svg width="16" height="16" viewBox="0 0 16 16" fill="none" xmlns="http://www.w3.org/2000/svg">
<g clip-path="url(#clip0_46_285)">
<path fill-rule="evenodd" clip-rule="evenodd" d="M7.99992 0.833374C11.9533 0.833374 15.1666 4.04671 15.1666 8.00004C15.1666 11.9534 11.9533 15.1667 7.99992 15.1667C4.04659 15.1667 0.833252 11.9534 0.833252 8.00004C0.833252 4.04671 4.04659 0.833374 7.99992 0.833374ZM7.99992 1.83337C4.59992 1.83337 1.83325 4.60004 1.83325 8.00004C1.83325 11.4 4.59992 14.1667 7.99992 14.1667C11.3999 14.1667 14.1666 11.4 14.1666 8.00004C14.1666 4.60004 11.3999 1.83337 7.99992 1.83337ZM8.25325 10.0533C8.33325 10.0866 8.40659 10.1333 8.47325 10.1933C8.53325 10.26 8.57992 10.3333 8.61325 10.4133C8.64659 10.4933 8.66659 10.58 8.66659 10.6666C8.66659 10.7533 8.64659 10.84 8.61325 10.92C8.57992 11.0066 8.53325 11.0733 8.47325 11.14C8.40659 11.2 8.33325 11.2466 8.25325 11.28C8.17325 11.3133 8.08659 11.3333 7.99992 11.3333C7.91325 11.3333 7.82659 11.3133 7.74659 11.28C7.66659 11.2466 7.59325 11.2 7.52659 11.14C7.46659 11.0733 7.41992 11.0066 7.38659 10.92C7.35325 10.84 7.33325 10.7533 7.33325 10.6666C7.33325 10.58 7.35325 10.4933 7.38659 10.4133C7.41992 10.3333 7.46659 10.26 7.52659 10.1933C7.59325 10.1333 7.66659 10.0866 7.74659 10.0533C7.90659 9.98663 8.09325 9.98663 8.25325 10.0533ZM7.99992 4.83337C8.27325 4.83337 8.49992 5.06004 8.49992 5.33337V8.66671C8.49992 8.94004 8.27325 9.16671 7.99992 9.16671C7.72659 9.16671 7.49992 8.94004 7.49992 8.66671V5.33337C7.49992 5.06004 7.72659 4.83337 7.99992 4.83337Z" fill="#397EFF"/>
</g>
<defs>
<clipPath id="clip0_46_285">
<rect width="16" height="16" fill="white"/>
</clipPath>
</defs>
</svg>
